
<svg version="1.1" xmlns="http://www.w3.org/2000/svg" width="583" height="367">
<path d="M0 0 C192.39 0 384.78 0 583 0 C583 121.11 583 242.22 583 367 C390.61 367 198.22 367 0 367 C0 245.89 0 124.78 0 0 Z " fill="#111111" transform="translate(0,0)"/>
<path d="M0 0 C2.51113544 1.97766205 4.9525545 4.01856161 7.38671875 6.08984375 C8.40185547 6.88648438 8.40185547 6.88648438 9.4375 7.69921875 C24.90484854 20.2218817 35.91304676 40.41642118 38.38671875 60.08984375 C38.74607711 65.19666296 38.86149286 70.28369436 38.88671875 75.40234375 C38.89316406 76.64121338 38.89960938 77.88008301 38.90625 79.15649414 C38.56909181 103.53400398 29.11388715 125.5491008 11.84082031 142.70410156 C6.88199145 147.42980885 1.67924047 152.25747899 -4.61328125 155.08984375 C-3.53927017 152.17467083 -2.83517949 150.31174199 -0.61328125 148.08984375 C-3.58328125 150.06984375 -6.55328125 152.04984375 -9.61328125 154.08984375 C-10.27328125 153.75984375 -10.93328125 153.42984375 -11.61328125 153.08984375 C-10.37964844 152.16365234 -10.37964844 152.16365234 -9.12109375 151.21875 C1.68088449 143.2701884 1.68088449 143.2701884 11.38671875 134.08984375 C11.38671875 133.09984375 11.38671875 132.10984375 11.38671875 131.08984375 C12.3636511 129.40477996 13.41821262 127.76420018 14.51171875 126.15234375 C28.94315541 103.96583203 32.72408524 79.0793463 28.38671875 53.02734375 C23.31820327 31.8164472 8.82323189 13.39699705 -9.42578125 2.02734375 C-28.46836154 -9.15173651 -50.51401583 -13.77058436 -72.23828125 -8.22265625 C-87.13743232 -3.87896898 -99.27543503 2.50002351 -110.51953125 13.26953125 C-112.61328125 15.08984375 -112.61328125 15.08984375 -115.61328125 16.08984375 C-116.65470617 17.92701032 -116.65470617 17.92701032 -117.61328125 20.08984375 C-118.6595688 21.53918666 -119.72392296 22.97556811 -120.80078125 24.40234375 C-131.72507065 39.92393828 -135.75390271 57.47159287 -137.61328125 76.08984375 C-139.09828125 76.58484375 -139.09828125 76.58484375 -140.61328125 77.08984375 C-141.08250891 69.70385285 -139.95786932 63.00879841 -138.3671875 55.80078125 C-137.53935744 52.06792882 -137.53935744 52.06792882 -137.24609375 48.125 C-136.72007414 43.64814515 -135.01882624 40.10335755 -132.92578125 36.15234375 C-132.56347412 35.45286621 -132.20116699 34.75338867 -131.82788086 34.03271484 C-120.58370824 12.63724257 -103.20190578 -3.22439008 -80.61328125 -11.91015625 C-77.47605795 -12.84547132 -74.32649131 -13.53995125 -71.11328125 -14.16015625 C-70.24815918 -14.32854004 -69.38303711 -14.49692383 -68.49169922 -14.67041016 C-44.71710648 -18.96576491 -19.69041639 -14.39254651 0 0 Z " fill="#F0F0F0" transform="translate(334.61328125,69.91015625)"/>
<path d="M0 0 C2.12109375 2.1640625 2.12109375 2.1640625 2.68359375 5.2890625 C1.96725796 10.22382018 0.67683268 14.84928103 -1.87890625 19.1640625 C-4.01953125 20.45703125 -4.01953125 20.45703125 -5.87890625 21.1640625 C-5.24807156 18.40798862 -4.40049444 15.89715874 -3.31640625 13.2890625 C-1.97809137 9.79638709 -1.51070496 6.93812569 -1.87890625 3.1640625 C-3.61632381 1.42664494 -5.88616136 1.9093866 -8.25390625 1.8515625 C-25.14307991 2.05143438 -39.35430556 13.74982508 -50.87890625 25.1640625 C-67.43786607 42.99877499 -79.43626129 66.6929445 -79.37890625 91.2265625 C-79.40726563 92.33322266 -79.435625 93.43988281 -79.46484375 94.58007812 C-79.48249327 102.05023822 -78.31651222 108.01141045 -73.87890625 114.1640625 C-68.23214716 118.83256925 -61.98741372 119.71168085 -54.87890625 119.1640625 C-38.89967766 116.87804983 -26.40170218 107.84028566 -14.87890625 97.1640625 C-13.72068359 96.11025391 -13.72068359 96.11025391 -12.5390625 95.03515625 C-5.84864239 88.67861507 2.77772074 79.34477666 3.30859375 69.7890625 C3.24671875 68.9228125 3.18484375 68.0565625 3.12109375 67.1640625 C-2.23937657 66.96786228 -6.87242803 67.62462548 -12.06640625 68.9140625 C-12.80383057 69.09090576 -13.54125488 69.26774902 -14.30102539 69.44995117 C-19.87210103 70.82171141 -25.27305481 72.53548748 -30.65625 74.52734375 C-32.87890625 75.1640625 -32.87890625 75.1640625 -34.87890625 74.1640625 C-29.81099348 69.23312034 -24.5737332 67.25138642 -17.87890625 65.1640625 C-17.20859375 64.93589844 -16.53828125 64.70773438 -15.84765625 64.47265625 C-9.42920489 62.52808306 -0.72945372 61.528209 5.51171875 64.1796875 C6.30835938 64.66695312 6.30835938 64.66695312 7.12109375 65.1640625 C8.16217707 75.57489575 3.71304708 83.18378441 -2.67651367 91.13134766 C-15.49251277 106.41689726 -33.86128943 122.43314858 -54.52734375 124.53515625 C-64.58882119 124.71444882 -70.34465741 123.39602808 -77.69140625 116.5390625 C-85.8295728 105.15128083 -85.34621727 90.29297809 -83.58154297 76.90869141 C-82.78338916 72.49467524 -81.43764817 68.36103329 -79.87890625 64.1640625 C-79.65348145 63.54047852 -79.42805664 62.91689453 -79.19580078 62.27441406 C-72.98657014 45.4719746 -62.58217052 30.69383757 -49.87890625 18.1640625 C-49.14285156 17.42929688 -48.40679687 16.69453125 -47.6484375 15.9375 C-37.04340389 5.93129342 -14.92460523 -9.51772653 0 0 Z " fill="#EDEDED" transform="translate(320.87890625,85.8359375)"/>
<path d="M0 0 C0.33 0 0.66 0 1 0 C1.79309907 4.88448314 2.13525723 9.53550236 2.125 14.5 C2.12886719 16.37171875 2.12886719 16.37171875 2.1328125 18.28125 C2.0016814 21.9529207 1.58778853 25.37996907 1 29 C1.66 29 2.32 29 3 29 C0.52088566 53.96211676 -11.99471233 74.30324088 -31 90.1875 C-33.89532872 92.50979491 -36.61324008 94.4712542 -40 96 C-38.38994449 90.87709612 -35.32197061 88.21293303 -31.50268555 84.57299805 C-8.0706932 62.20157678 -0.91793467 37.13434732 -0.11328125 5.4140625 C-0.07379493 3.60941194 -0.03534487 1.80473642 0 0 Z " fill="#8A8A8A" transform="translate(370,129)"/>
<path d="M0 0 C3.4203866 1.17013226 3.91540482 1.87310723 6 5 C6.79875517 9.96068998 6.73404128 13.81606246 4.0625 18.125 C-0.07144905 20.65598921 -3.27493702 21.02533012 -8 20 C-11.0625 18.125 -11.0625 18.125 -13 15 C-14.0077149 9.91978438 -13.81268324 6.26981757 -11 1.875 C-6.87846537 -0.70095914 -4.81531263 -0.53503474 0 0 Z " fill="#1D1D1D" transform="translate(184,255)"/>
<path d="M0 0 C2.32421875 0.12109375 2.32421875 0.12109375 5 1 C7.22295568 4.82567927 8.46331732 8.82900416 10 13 C11.65 8.71 13.3 4.42 15 0 C16.65 0 18.3 0 20 0 C20.33 6.6 20.66 13.2 21 20 C20.01 20 19.02 20 18 20 C17.93941406 19.21753906 17.87882812 18.43507813 17.81640625 17.62890625 C17.69072266 16.11103516 17.69072266 16.11103516 17.5625 14.5625 C17.48128906 13.55316406 17.40007812 12.54382813 17.31640625 11.50390625 C17.26788532 9.06359221 17.26788532 9.06359221 16 8 C14.35 11.96 12.7 15.92 11 20 C8 19 8 19 6.83203125 16.8203125 C6.49558594 15.93085938 6.15914063 15.04140625 5.8125 14.125 C5.46832031 13.24070312 5.12414062 12.35640625 4.76953125 11.4453125 C4 9 4 9 4 6 C3.34 6 2.68 6 2 6 C2 10.62 2 15.24 2 20 C1.01 20 0.02 20 -1 20 C-1.02712351 17.60408962 -1.0468982 15.20849043 -1.0625 12.8125 C-1.07087891 12.13896484 -1.07925781 11.46542969 -1.08789062 10.77148438 C-1.10606538 7.04565869 -0.89299392 3.6211958 0 0 Z " fill="#E0E0E0" transform="translate(296,255)"/>
<path d="M0 0 C5 1 5 1 6.1184082 2.64233398 C6.45618286 3.68369507 6.45618286 3.68369507 6.80078125 4.74609375 C7.05537109 5.50083984 7.30996094 6.25558594 7.57226562 7.03320312 C7.81654297 7.82662109 8.06082031 8.62003906 8.3125 9.4375 C8.57611328 10.22705078 8.83972656 11.01660156 9.11132812 11.83007812 C11 17.58439529 11 17.58439529 11 20 C10.01 20 9.02 20 8 20 C7.67 19.01 7.34 18.02 7 17 C3.7 16.67 0.4 16.34 -3 16 C-3.33 17.32 -3.66 18.64 -4 20 C-4.99 19.67 -5.98 19.34 -7 19 C-4.69 12.73 -2.38 6.46 0 0 Z " fill="#E4E4E4" transform="translate(429,255)"/>
<path d="M0 0 C1.32 0 2.64 0 4 0 C5.1721449 2.95619219 6.33677476 5.91528789 7.5 8.875 C7.83386719 9.71675781 8.16773438 10.55851562 8.51171875 11.42578125 C8.98544922 12.63427734 8.98544922 12.63427734 9.46875 13.8671875 C9.90864258 14.98262939 9.90864258 14.98262939 10.35742188 16.12060547 C11 18 11 18 11 20 C10.01 20 9.02 20 8 20 C7.67 18.68 7.34 17.36 7 16 C3.7 16 0.4 16 -3 16 C-3.33 17.32 -3.66 18.64 -4 20 C-4.99 20 -5.98 20 -7 20 C-5.07443364 13.14381674 -2.7527517 6.56747868 0 0 Z " fill="#DFDFDF" transform="translate(368,255)"/>
<path d="M0 0 C1.95605469 0.21923828 1.95605469 0.21923828 4 1 C5.29437238 3.65405713 6.30440845 6.10094316 7.25 8.875 C7.518125 9.60847656 7.78625 10.34195312 8.0625 11.09765625 C9.16028874 14.17258492 10 16.71299088 10 20 C9.01 19.67 8.02 19.34 7 19 C7 18.01 7 17.02 7 16 C2.05 16.495 2.05 16.495 -3 17 C-3.33 17.99 -3.66 18.98 -4 20 C-4.99 20 -5.98 20 -7 20 C-6.3899268 15.43138367 -5.18479121 11.47294276 -3.5 7.1875 C-3.0565625 6.04667969 -2.613125 4.90585937 -2.15625 3.73046875 C-1 1 -1 1 0 0 Z " fill="#E3E3E3" transform="translate(276,255)"/>
<path d="M0 0 C2.4375 0.8125 2.4375 0.8125 4 2 C4.33 2.99 4.66 3.98 5 5 C3.68 5 2.36 5 1 5 C0.67 4.67 0.34 4.34 0 4 C-4.66052404 3.57607843 -4.66052404 3.57607843 -8.9375 5.125 C-10.51108304 7.90191125 -10.38420899 9.86229327 -10 13 C-9.02896212 15.46186579 -9.02896212 15.46186579 -7 17 C-2.91834173 17.51020728 -1.47042703 17.31361802 2 15 C2.33 14.01 2.66 13.02 3 12 C1.02 12 -0.96 12 -3 12 C-3 11.34 -3 10.68 -3 10 C-0.03 10 2.94 10 6 10 C6 13.3 6 16.6 6 20 C5.34 20 4.68 20 4 20 C3.67 19.34 3.34 18.68 3 18 C2.34 18.66 1.68 19.32 1 20 C-3.60625691 20.85971396 -7.0559189 20.57800884 -11.0625 18.125 C-13.79108983 13.72404866 -14.009303 10.046515 -13 5 C-9.41906017 -0.59521849 -6.14701088 -0.68300121 0 0 Z " fill="#F2F2F2" transform="translate(156,255)"/>
<path d="M0 0 C0.99 0 1.98 0 3 0 C3 2.97 3 5.94 3 9 C6.3 9 9.6 9 13 9 C13 6.03 13 3.06 13 0 C13.99 0 14.98 0 16 0 C16 6.6 16 13.2 16 20 C15.01 20 14.02 20 13 20 C13 17.36 13 14.72 13 12 C9.7 12 6.4 12 3 12 C3 14.64 3 17.28 3 20 C2.01 20 1.02 20 0 20 C0 13.4 0 6.8 0 0 Z " fill="#E7E7E7" transform="translate(244,255)"/>
<path d="M0 0 C3.4203866 1.17013226 3.91540482 1.87310723 6 5 C6.79875517 9.96068998 6.73404128 13.81606246 4.0625 18.125 C-0.07144905 20.65598921 -3.27493702 21.02533012 -8 20 C-11.0625 18.125 -11.0625 18.125 -13 15 C-14.0077149 9.91978438 -13.81268324 6.26981757 -11 1.875 C-6.87846537 -0.70095914 -4.81531263 -0.53503474 0 0 Z M-9.4375 4.625 C-11.48384007 7.73543691 -11.59807728 9.33677666 -11 13 C-9.52383326 15.9703869 -9.52383326 15.9703869 -7 18 C-4.04340127 18.83349951 -4.04340127 18.83349951 -1 18 C2.36344489 15.51397551 3.80057749 14.08574477 4.5625 9.9375 C4.18486055 6.95107744 4.18486055 6.95107744 2.4375 4.625 C-1.66320945 1.8911937 -5.33679055 1.8911937 -9.4375 4.625 Z " fill="#EFEFEF" transform="translate(184,255)"/>
<path d="M0 0 C0.99 0 1.98 0 3 0 C3 2.97 3 5.94 3 9 C4.11375 7.88625 4.11375 7.88625 5.25 6.75 C7.5 4.5 9.75 2.25 12 0 C12.99 0.33 13.98 0.66 15 1 C14.55527344 1.45890625 14.11054688 1.9178125 13.65234375 2.390625 C13.08644531 3.00421875 12.52054687 3.6178125 11.9375 4.25 C11.36902344 4.85328125 10.80054688 5.4565625 10.21484375 6.078125 C8.79183713 7.90483093 8.79183713 7.90483093 9.15625 10 C10.07069018 12.1675619 11.15187489 13.86916652 12.5625 15.75 C13.01753906 16.36359375 13.47257812 16.9771875 13.94140625 17.609375 C14.29074219 18.06828125 14.64007813 18.5271875 15 19 C13.68 19.33 12.36 19.66 11 20 C10.59007812 19.43410156 10.18015625 18.86820312 9.7578125 18.28515625 C8.94957031 17.18494141 8.94957031 17.18494141 8.125 16.0625 C7.59132813 15.33160156 7.05765625 14.60070312 6.5078125 13.84765625 C5.11987896 11.88901765 5.11987896 11.88901765 3 11 C3 13.97 3 16.94 3 20 C2.01 20 1.02 20 0 20 C0 13.4 0 6.8 0 0 Z " fill="#E4E4E4" transform="translate(339,255)"/>
<path d="M0 0 C0.99 0 1.98 0 3 0 C3 5.61 3 11.22 3 17 C5.64 17 8.28 17 11 17 C11.33 11.39 11.66 5.78 12 0 C12.99 0 13.98 0 15 0 C15.05411124 2.41696872 15.09372278 4.83271787 15.125 7.25 C15.15013672 8.27287109 15.15013672 8.27287109 15.17578125 9.31640625 C15.21185049 13.0315375 15.18812735 15.90907884 13 19 C9.88450128 20.55774936 6.3955612 20.56480622 3 20 C1.04806435 18.45573208 0.10422818 17.58180992 -0.34057617 15.09887695 C-0.32486572 14.40238037 -0.30915527 13.70588379 -0.29296875 12.98828125 C-0.28330078 12.23095703 -0.27363281 11.47363281 -0.26367188 10.69335938 C-0.23853516 9.90767578 -0.21339844 9.12199219 -0.1875 8.3125 C-0.17396484 7.51521484 -0.16042969 6.71792969 -0.14648438 5.89648438 C-0.11117089 3.93070033 -0.05736447 1.96526418 0 0 Z " fill="#DDDDDD" transform="translate(200,255)"/>
<path d="M0 0 C0.66 0.33 1.32 0.66 2 1 C-6.4738093 10.15094018 -22.60971166 14.31437889 -34.82421875 15.3125 C-37.57132229 15.3125 -40.26450644 15.24136708 -43 15 C-40.20083475 12.00382605 -38.03498736 10.98971388 -34 10 C-32.2675 10.061875 -32.2675 10.061875 -30.5 10.125 C-20.50755978 10.35383451 -10.8795609 5.79580034 -2.328125 1.07421875 C-1.55984375 0.71972656 -0.7915625 0.36523438 0 0 Z " fill="#DDDDDD" transform="translate(327,223)"/>
<path d="M0 0 C0.33 0.66 0.66 1.32 1 2 C-0.7039459 4.89580168 -2.61891089 7.60923476 -4.53125 10.37109375 C-5.0159375 11.23863281 -5.500625 12.10617188 -6 13 C-5.67 13.99 -5.34 14.98 -5 16 C-11.85543686 23.21345774 -18.72141306 29.4115535 -27 35 C-27 31.4633115 -26.5390793 31.09683779 -24.25 28.5625 C-23.61449219 27.85738281 -22.97898437 27.15226562 -22.32421875 26.42578125 C-20.14028546 24.14641558 -17.8904657 21.95025729 -15.61914062 19.75854492 C-9.34996405 13.68306781 -4.53062045 7.5154998 0 0 Z " fill="#6E6E6E" transform="translate(358,190)"/>
<path d="M0 0 C0.66 0.66 1.32 1.32 2 2 C1.67386719 2.74121094 1.34773437 3.48242188 1.01171875 4.24609375 C-3.80412688 15.85242379 -5.50018252 27.59873141 -7 40 C-8.485 40.495 -8.485 40.495 -10 41 C-10.47396145 33.53949562 -9.29815608 26.78514409 -7.7265625 19.5 C-7.16029032 16.7721512 -6.72034682 14.14061332 -6.4375 11.375 C-6.03143 8.24245996 -5.33425871 5.84641858 -4 3 C-3.34 3.33 -2.68 3.66 -2 4 C-1.34 2.68 -0.68 1.36 0 0 Z " fill="#A9A9A9" transform="translate(204,106)"/>
<path d="M0 0 C2.32421875 0.1328125 2.32421875 0.1328125 5 1 C6.58203125 3.6171875 6.58203125 3.6171875 7.8125 6.875 C8.23144531 7.94492187 8.65039062 9.01484375 9.08203125 10.1171875 C10 13 10 13 10 16 C9.01 16 8.02 16 7 16 C4 9.375 4 9.375 4 6 C3.34 6 2.68 6 2 6 C2 10.62 2 15.24 2 20 C1.01 20 0.02 20 -1 20 C-1.02712351 17.60408962 -1.0468982 15.20849043 -1.0625 12.8125 C-1.07087891 12.13896484 -1.07925781 11.46542969 -1.08789062 10.77148438 C-1.10606538 7.04565869 -0.89299392 3.6211958 0 0 Z " fill="#E8E8E8" transform="translate(296,255)"/>
<path d="M0 0 C12.62315498 2.56742135 27.55207263 9.02901127 37 18 C37 18.99 37 19.98 37 21 C33.88236284 19.56757211 31.08213388 17.77620549 28.22949219 15.87744141 C18.66829272 9.52849233 9.12960102 4.96950309 -2 2 C-1.34 1.34 -0.68 0.68 0 0 Z " fill="#B6B6B6" transform="translate(303,56)"/>
<path d="M0 0 C4.29 0 8.58 0 13 0 C13 0.99 13 1.98 13 3 C11.35 3 9.7 3 8 3 C8 8.61 8 14.22 8 20 C7.01 20 6.02 20 5 20 C5 14.39 5 8.78 5 3 C3.35 3 1.7 3 0 3 C0 2.01 0 1.02 0 0 Z " fill="#DBDBDB" transform="translate(223,255)"/>
<path d="M0 0 C0.33 0 0.66 0 1 0 C3.6327348 9.41393146 4.38727055 18.06472151 4.1875 27.8125 C4.17396484 29.08931641 4.16042969 30.36613281 4.14648438 31.68164062 C4.11157893 34.78822548 4.06255244 37.89387016 4 41 C3.34 41 2.68 41 2 41 C2 31.43 2 21.86 2 12 C1.01 12.33 0.02 12.66 -1 13 C-1.2236337 11.58566794 -1.42826476 10.16832382 -1.625 8.75 C-1.74101562 7.96109375 -1.85703125 7.1721875 -1.9765625 6.359375 C-2.00319395 3.67847541 -1.36592084 2.27305911 0 0 Z " fill="#E4E4E4" transform="translate(369,117)"/>
<path d="M0 0 C2.91517292 1.07401108 4.77810176 1.77810176 7 4 C7.76429326 10.11434611 6.13847031 15.7014097 3 21 C0.859375 22.29296875 0.859375 22.29296875 -1 23 C-0.36916531 20.24392612 0.47841181 17.73309624 1.5625 15.125 C2.90889627 11.63482714 3.28281587 8.77087831 3 5 C0.69 4.34 -1.62 3.68 -4 3 C-2.68 2.67 -1.36 2.34 0 2 C0 1.34 0 0.68 0 0 Z " fill="#DADADA" transform="translate(316,84)"/>
<path d="M0 0 C0.99 0 1.98 0 3 0 C3 5.94 3 11.88 3 18 C5.31 18 7.62 18 10 18 C10 18.66 10 19.32 10 20 C6.7 20 3.4 20 0 20 C0 13.4 0 6.8 0 0 Z " fill="#F1F1F1" transform="translate(406,255)"/>
<path d="M0 0 C0.33 0.66 0.66 1.32 1 2 C4.3 1.67 7.6 1.34 11 1 C14 6.75 14 6.75 14 9 C13.01 9 12.02 9 11 9 C10.67 7.68 10.34 6.36 10 5 C6.7 5 3.4 5 0 5 C-0.33 6.32 -0.66 7.64 -1 9 C-1.99 9 -2.98 9 -4 9 C-2.25 2.25 -2.25 2.25 0 0 Z " fill="#F3F3F3" transform="translate(365,266)"/>
<path d="M0 0 C0.99 0 1.98 0 3 0 C3 5.94 3 11.88 3 18 C4.98 18 6.96 18 9 18 C9 18.66 9 19.32 9 20 C6.03 20 3.06 20 0 20 C0 13.4 0 6.8 0 0 Z " fill="#E5E5E5" transform="translate(388,255)"/>
<path d="M0 0 C0.66 0.33 1.32 0.66 2 1 C0.78359051 3.2577526 -0.4471923 5.50542161 -1.6875 7.75 C-2.02716797 8.38421875 -2.36683594 9.0184375 -2.71679688 9.671875 C-4.95806658 13.69359261 -7.1408377 16.32359322 -11 19 C-11.33 18.34 -11.66 17.68 -12 17 C-10.671875 14.57421875 -10.671875 14.57421875 -8.75 11.6875 C-5.98357794 7.50115274 -5.98357794 7.50115274 -3.390625 3.20703125 C-2 1 -2 1 0 0 Z " fill="#CECECE" transform="translate(363,186)"/>
<path d="M0 0 C0.66 0.66 1.32 1.32 2 2 C1.0744789 4.62979781 0.13535892 7.25326255 -0.8125 9.875 C-1.07353516 10.62136719 -1.33457031 11.36773437 -1.60351562 12.13671875 C-1.86455078 12.85214844 -2.12558594 13.56757812 -2.39453125 14.3046875 C-2.74801636 15.2944458 -2.74801636 15.2944458 -3.10864258 16.30419922 C-4 18 -4 18 -7 20 C-7.40368295 13.54107286 -6.5915262 8.93891422 -4 3 C-3.34 3.33 -2.68 3.66 -2 4 C-1.34 2.68 -0.68 1.36 0 0 Z " fill="#B2B2B2" transform="translate(204,106)"/>
<path d="M0 0 C2.4375 0.8125 2.4375 0.8125 4 2 C4.33 2.99 4.66 3.98 5 5 C3.68 5 2.36 5 1 5 C0.67 4.67 0.34 4.34 0 4 C-4.92202099 3.57755961 -4.92202099 3.57755961 -9.3125 5.5 C-9.869375 5.995 -10.42625 6.49 -11 7 C-11.66 7 -12.32 7 -13 7 C-10.63205526 0.07831538 -6.93977565 -0.68558268 0 0 Z " fill="#E2E2E2" transform="translate(156,255)"/>
<path d="M0 0 C-2.42720307 3.76216475 -2.42720307 3.76216475 -4.796875 4.74609375 C-7.63125199 5.07275067 -10.39718246 5.09350889 -13.25 5.0625 C-14.32765625 5.05347656 -15.4053125 5.04445312 -16.515625 5.03515625 C-17.33546875 5.02355469 -18.1553125 5.01195312 -19 5 C-13.67031052 -0.67153545 -7.30907769 -0.26000672 0 0 Z " fill="#878787" transform="translate(303,233)"/>
<path d="M0 0 C0.33 0 0.66 0 1 0 C1.12117187 0.62648438 1.24234375 1.25296875 1.3671875 1.8984375 C1.53476563 2.71570313 1.70234375 3.53296875 1.875 4.375 C2.03742188 5.18710937 2.19984375 5.99921875 2.3671875 6.8359375 C2.86658932 9.18673923 2.86658932 9.18673923 5 11 C7.68839385 11.26991906 10.29141936 11.08737357 13 11 C12.67 11.99 12.34 12.98 12 14 C4.90225564 14.60150376 4.90225564 14.60150376 1 12 C-1.70430716 7.94353925 -1.47981651 5.79816514 -1 1 C-0.67 0.67 -0.34 0.34 0 0 Z " fill="#F6F6F6" transform="translate(172,261)"/>
<path d="M0 0 C2.97 0 5.94 0 9 0 C9 3.3 9 6.6 9 10 C8.34 10 7.68 10 7 10 C6.67 9.34 6.34 8.68 6 8 C5.01 8.495 5.01 8.495 4 9 C4.57584432 6.61435923 5.22227595 4.33317216 6 2 C4.02 2 2.04 2 0 2 C0 1.34 0 0.68 0 0 Z " fill="#FAFAFA" transform="translate(153,265)"/>
<path d="M0 0 C0.99 0.33 1.98 0.66 3 1 C-0.95825209 5.82485166 -4.59160025 9.83410746 -10 13 C-9.33333333 11.66666667 -8.66666667 10.33333333 -8 9 C-7.62875 8.0409375 -7.62875 8.0409375 -7.25 7.0625 C-5.32779867 3.8908678 -3.02354188 2.15967277 0 0 Z " fill="#494949" transform="translate(345,201)"/>
<path d="M0 0 C2.6855594 2.6855594 3.06049974 5.37621328 4 9 C1.69 9 -0.62 9 -3 9 C-2.5020163 5.26512223 -2.12508244 3.18762365 0 0 Z " fill="#262626" transform="translate(431,259)"/>
<path d="M0 0 C2 1 2 1 2.6328125 2.84765625 C2.79523438 3.57855469 2.95765625 4.30945313 3.125 5.0625 C3.29257812 5.79597656 3.46015625 6.52945312 3.6328125 7.28515625 C3.75398438 7.85105469 3.87515625 8.41695313 4 9 C1.69 9 -0.62 9 -3 9 C-2.01 6.03 -1.02 3.06 0 0 Z " fill="#222222" transform="translate(277,259)"/>
<path d="M0 0 C0.66 0 1.32 0 2 0 C2.66 2.97 3.32 5.94 4 9 C2.02 9 0.04 9 -2 9 C-1.34 6.03 -0.68 3.06 0 0 Z " fill="#212121" transform="translate(369,259)"/>
<path d="M0 0 C1.65 0.33 3.3 0.66 5 1 C5.33 2.65 5.66 4.3 6 6 C5.38125 5.79375 4.7625 5.5875 4.125 5.375 C3.42375 5.25125 2.7225 5.1275 2 5 C1.34 5.66 0.68 6.32 0 7 C-0.66 7 -1.32 7 -2 7 C-1.34 4.69 -0.68 2.38 0 0 Z " fill="#DEDEDE" transform="translate(429,255)"/>
<path d="M0 0 C0.66 0 1.32 0 2 0 C0.47547071 4.2841203 -2.38803458 5.86470292 -6.125 8.25 C-7.22070312 8.95640625 -8.31640625 9.6628125 -9.4453125 10.390625 C-10.28835938 10.92171875 -11.13140625 11.4528125 -12 12 C-12.66 11.67 -13.32 11.34 -14 11 C-13.07316406 10.28972656 -12.14632813 9.57945312 -11.19140625 8.84765625 C-9.98174158 7.91930895 -8.77210776 6.99092145 -7.5625 6.0625 C-6.95083984 5.59392578 -6.33917969 5.12535156 -5.70898438 4.64257812 C-2.75031115 2.44328176 -2.75031115 2.44328176 0 0 Z " fill="#D5D5D5" transform="translate(337,212)"/>
<path d="M0 0 C0.66 0.33 1.32 0.66 2 1 C1.60304363 2.62992692 1.18167507 4.25392235 0.75 5.875 C0.51796875 6.77992188 0.2859375 7.68484375 0.046875 8.6171875 C-1 11 -1 11 -3.109375 12.3203125 C-4.04523438 12.65675781 -4.04523438 12.65675781 -5 13 C-4.54554036 11.58208592 -4.08625056 10.16571954 -3.625 8.75 C-3.24214844 7.56664062 -3.24214844 7.56664062 -2.8515625 6.359375 C-2.04826333 4.13372042 -1.10288338 2.09068328 0 0 Z " fill="#E4E4E4" transform="translate(367,174)"/>
<path d="M0 0 C0.66 0.66 1.32 1.32 2 2 C1.9765625 4.6015625 1.9765625 4.6015625 1.625 7.625 C1.51414063 8.62789062 1.40328125 9.63078125 1.2890625 10.6640625 C1.19367188 11.43492187 1.09828125 12.20578125 1 13 C0.01 13.33 -0.98 13.66 -2 14 C-2.05437607 12.41705218 -2.09296271 10.83355744 -2.125 9.25 C-2.14820313 8.36828125 -2.17140625 7.4865625 -2.1953125 6.578125 C-1.99139502 3.8864142 -1.36551721 2.30095026 0 0 Z " fill="#717171" transform="translate(196,133)"/>
<path d="M0 0 C0.33 0 0.66 0 1 0 C0.25531915 7.74468085 0.25531915 7.74468085 -3 11 C-3.66 11 -4.32 11 -5 11 C-4.26023275 7.1532103 -2.81328141 2.81328141 0 0 Z " fill="#EBEBEB" transform="translate(320,96)"/>
<path d="M0 0 C0.33 0 0.66 0 1 0 C1 2.64 1 5.28 1 8 C1.66 8 2.32 8 3 8 C3 10.31 3 12.62 3 15 C2.01 15 1.02 15 0 15 C0 10.05 0 5.1 0 0 Z " fill="#CECECE" transform="translate(295,260)"/>
<path d="M0 0 C0.99 0.33 1.98 0.66 3 1 C-0.11016455 4.28788824 -3.01618925 6.83735988 -7 9 C-5.66087415 4.61740632 -3.87774964 2.45906075 0 0 Z " fill="#BABABA" transform="translate(337,216)"/>
<path d="M0 0 C0.66 0 1.32 0 2 0 C2.33 4.29 2.66 8.58 3 13 C2.01 13 1.02 13 0 13 C0 8.71 0 4.42 0 0 Z " fill="#FBFBFB" transform="translate(314,262)"/>
<path d="M0 0 C0.66 0.33 1.32 0.66 2 1 C-1 4 -4 7 -7 10 C-7.33 9.34 -7.66 8.68 -8 8 C-8.66 7.67 -9.32 7.34 -10 7 C-6.7 4.69 -3.4 2.38 0 0 Z " fill="#646464" transform="translate(335,216)"/>
<path d="M0 0 C-4.95 2.475 -4.95 2.475 -10 5 C-10.66 4.34 -11.32 3.68 -12 3 C-10.75823305 2.29773859 -9.50614401 1.61370891 -8.25 0.9375 C-7.20585937 0.36322266 -7.20585937 0.36322266 -6.140625 -0.22265625 C-4 -1 -4 -1 0 0 Z " fill="#434343" transform="translate(325,225)"/>
<path d="M0 0 C1.5625 1.125 1.5625 1.125 3 3 C2.875 6.0625 2.875 6.0625 2 9 C1.01 9.66 0.02 10.32 -1 11 C-1.0270043 9.54176788 -1.04639787 8.08339325 -1.0625 6.625 C-1.07410156 5.81289062 -1.08570313 5.00078125 -1.09765625 4.1640625 C-1 2 -1 2 0 0 Z " fill="#C1C1C1" transform="translate(198,115)"/>
<path d="M0 0 C3.91841827 1.30613942 6.32640809 2.83129848 9 6 C9 6.66 9 7.32 9 8 C5.18284914 6.44486447 2.77292558 4.00400272 0 1 C0 0.67 0 0.34 0 0 Z " fill="#C3C3C3" transform="translate(331,69)"/>
<path d="M0 0 C0.99 0.33 1.98 0.66 3 1 C-0.61328125 5.6875 -0.61328125 5.6875 -2 7 C-2.99 7 -3.98 7 -5 7 C-3.75023244 3.34683329 -3.32901247 2.21934164 0 0 Z " fill="#E8E8E8" transform="translate(176,255)"/>
<path d="M0 0 C0.99 0.33 1.98 0.66 3 1 C-0.61328125 5.6875 -0.61328125 5.6875 -2 7 C-2.99 7 -3.98 7 -5 7 C-3.75023244 3.34683329 -3.32901247 2.21934164 0 0 Z " fill="#E8E8E8" transform="translate(148,255)"/>
<path d="M0 0 C1.50433594 0.01353516 1.50433594 0.01353516 3.0390625 0.02734375 C3.80992187 0.03894531 4.58078125 0.05054688 5.375 0.0625 C5.375 0.3925 5.375 0.7225 5.375 1.0625 C2.075 1.0625 -1.225 1.0625 -4.625 1.0625 C-4.955 2.3825 -5.285 3.7025 -5.625 5.0625 C-6.615 5.0625 -7.605 5.0625 -8.625 5.0625 C-8.25 3.125 -8.25 3.125 -7.625 1.0625 C-4.98041621 -0.25979189 -2.94738699 -0.03427194 0 0 Z " fill="#C3C3C3" transform="translate(369.625,269.9375)"/>
<path d="M0 0 C1.46726798 3.81489674 0.43336419 6.29011622 -1 10 C-1.99 9.67 -2.98 9.34 -4 9 C-2.25 2.25 -2.25 2.25 0 0 Z " fill="#E6E6E6" transform="translate(368,258)"/>
<path d="M0 0 C2.01822917 0.06510417 4.03645833 0.13020833 6.0546875 0.1953125 C4.9921875 2.1953125 4.9921875 2.1953125 3.0546875 4.1953125 C-0.6328125 4.4453125 -0.6328125 4.4453125 -3.9453125 4.1953125 C-3.9453125 1.28822619 -2.86537429 0.28768818 0 0 Z " fill="#ADADAD" transform="translate(296.9453125,232.8046875)"/>
<path d="M0 0 C1.2077558 3.62326739 0.54311128 4.64146369 -1 8 C-1.99 7.67 -2.98 7.34 -4 7 C-4 4 -4 4 -2 1.8125 C-1.34 1.214375 -0.68 0.61625 0 0 Z " fill="#F5F5F5" transform="translate(308,267)"/>
<path d="M0 0 C2.59482129 2.59482129 2.69990302 4.39883625 3 8 C2.34 8.66 1.68 9.32 1 10 C0.63883954 8.5225254 0.28624952 7.04295325 -0.0625 5.5625 C-0.25972656 4.73878906 -0.45695312 3.91507812 -0.66015625 3.06640625 C-0.82837891 2.04353516 -0.82837891 2.04353516 -1 1 C-0.67 0.67 -0.34 0.34 0 0 Z " fill="#C7C7C7" transform="translate(365,111)"/>
<path d="M0 0 C0.99 0 1.98 0 3 0 C2.25 1.9375 2.25 1.9375 1 4 C-1.125 4.75 -1.125 4.75 -3 5 C-1.125 1.125 -1.125 1.125 0 0 Z " fill="#A9A9A9" transform="translate(342,212)"/>
<path d="M0 0 C0.66 0.33 1.32 0.66 2 1 C1.01 2.98 0.02 4.96 -1 7 C-1.99 6.01 -2.98 5.02 -4 4 C-2.68 2.68 -1.36 1.36 0 0 Z " fill="#C8C8C8" transform="translate(363,186)"/>
<path d="M0 0 C-2.90092502 1.93395001 -3.89674737 2.30131941 -7.1875 2.625 C-8.445625 2.74875 -9.70375 2.8725 -11 3 C-7.48550811 -0.37391222 -4.73940561 -0.27342725 0 0 Z " fill="#E3E3E3" transform="translate(310,233)"/>
</svg>
